<svg className="dark:invert" width="172" height="184" viewBox="0 0 172 184" fill="none" xmlns="http://www.w3.org/2000/svg">
<path d="M92.2135 33.3364C92.2548 19.3851 80.9785 8.04136 67.026 8.00011C53.0748 7.95886 41.731 19.2351 41.6898 33.1876C41.6898 33.5876 41.6973 33.9889 41.7148 34.3889C23.6985 39.0214 12.8485 57.3814 17.481 75.3976C18.1585 78.0339 19.1535 80.5789 20.4448 82.9751C6.00727 94.7051 3.81102 115.918 15.541 130.355C18.201 133.63 21.4535 136.375 25.1273 138.449C22.7423 156.898 35.7648 173.786 54.2135 176.17C72.6623 178.555 89.551 165.533 91.9348 147.084C92.1185 145.664 92.211 144.234 92.2123 142.803V33.3364H92.2135Z" stroke="black" stroke-width="14.73" stroke-linecap="round" stroke-linejoin="round"/>
<path d="M66.9523 100.7C81.4098 95.6139 91.3798 82.3214 92.2135 67.0176" stroke="black" stroke-width="14.73" stroke-linecap="round" stroke-linejoin="round"/>
<path d="M41.716 34.3889C41.8823 38.4626 43.0323 42.4351 45.0673 45.9676" stroke="black" stroke-width="14.73" stroke-linecap="round" stroke-linejoin="round"/>
<path d="M20.446 82.9839C21.986 81.7289 23.6348 80.6139 25.3723 79.6489" stroke="black" stroke-width="14.73" stroke-linecap="round" stroke-linejoin="round"/>
<path d="M41.691 142.803C35.8873 142.805 30.1823 141.309 25.1273 138.458" stroke="black" stroke-width="14.73" stroke-linecap="round" stroke-linejoin="round"/>
<path d="M92.2135 92.2801H125.896" stroke="black" stroke-width="14.73" stroke-linecap="round" stroke-linejoin="round"/>
<path d="M92.2135 134.383H142.736C152.037 134.383 159.577 141.923 159.577 151.224V159.644" stroke="black" stroke-width="14.73" stroke-linecap="round" stroke-linejoin="round"/>
<path d="M92.2135 50.1776H159.577" stroke="black" stroke-width="14.73" stroke-linecap="round" stroke-linejoin="round"/>
<path d="M125.896 96.4901C128.221 96.4901 130.106 94.6052 130.106 92.2801C130.106 89.955 128.221 88.0701 125.896 88.0701C123.571 88.0701 121.686 89.955 121.686 92.2801C121.686 94.6052 123.571 96.4901 125.896 96.4901Z" stroke="black" stroke-width="14.73" stroke-linecap="round" stroke-linejoin="round"/>
<path d="M159.577 163.854C161.902 163.854 163.787 161.969 163.787 159.644C163.787 157.319 161.902 155.434 159.577 155.434C157.252 155.434 155.367 157.319 155.367 159.644C155.367 161.969 157.252 163.854 159.577 163.854Z" stroke="black" stroke-width="14.73" stroke-linecap="round" stroke-linejoin="round"/>
<path d="M159.577 54.3876C161.902 54.3876 163.787 52.5027 163.787 50.1776C163.787 47.8525 161.902 45.9676 159.577 45.9676C157.252 45.9676 155.367 47.8525 155.367 50.1776C155.367 52.5027 157.252 54.3876 159.577 54.3876Z" stroke="black" stroke-width="14.73" stroke-linecap="round" stroke-linejoin="round"/>
<path d="M164.411 50.0564C164.411 52.6162 162.336 54.6914 159.776 54.6914C157.216 54.6914 155.141 52.6162 155.141 50.0564C155.141 47.4966 157.216 45.4214 159.776 45.4214C162.336 45.4214 164.411 47.4965 164.411 50.0564Z" fill="white" stroke="#2563EB"/>
<path d="M131.126 92.3576C131.126 94.9174 129.051 96.9926 126.491 96.9926C123.931 96.9926 121.856 94.9174 121.856 92.3576C121.856 89.7978 123.931 87.7226 126.491 87.7226C129.051 87.7226 131.126 89.7978 131.126 92.3576Z" fill="white" stroke="#2563EB"/>
<path d="M164.212 159.721C164.212 162.281 162.137 164.356 159.577 164.356C157.017 164.356 154.942 162.281 154.942 159.721C154.942 157.162 157.017 155.086 159.577 155.086C162.137 155.086 164.212 157.162 164.212 159.721Z" fill="white" stroke="#2563EB"/>
</svg>
