<svg class="dark:invert" width="889" height="184" viewBox="0 0 889 184" fill="none" xmlns="http://www.w3.org/2000/svg">
<path d="M92.2135 33.1105C92.2548 19.1593 80.9785 7.81553 67.026 7.77428C53.0748 7.73303 41.731 19.0093 41.6898 32.9618C41.6898 33.3618 41.6973 33.763 41.7148 34.163C23.6985 38.7955 12.8485 57.1555 17.481 75.1718C18.1585 77.808 19.1535 80.353 20.4448 82.7493C6.00727 94.4793 3.81102 115.692 15.541 130.129C18.201 133.404 21.4535 136.149 25.1273 138.223C22.7423 156.672 35.7648 173.561 54.2135 175.944C72.6623 178.329 89.551 165.307 91.9348 146.858C92.1185 145.438 92.211 144.008 92.2123 142.577V33.1105H92.2135Z" stroke="#FDFDFF" stroke-width="14.73" stroke-linecap="round" stroke-linejoin="round"/>
<path d="M66.9523 100.474C81.4098 95.388 91.3798 82.0955 92.2135 66.7917" stroke="#FDFDFF" stroke-width="14.73" stroke-linecap="round" stroke-linejoin="round"/>
<path d="M41.716 34.1631C41.8823 38.2368 43.0323 42.2093 45.0673 45.7418" stroke="#FDFDFF" stroke-width="14.73" stroke-linecap="round" stroke-linejoin="round"/>
<path d="M20.446 82.7581C21.986 81.5031 23.6348 80.3881 25.3723 79.4231" stroke="#FDFDFF" stroke-width="14.73" stroke-linecap="round" stroke-linejoin="round"/>
<path d="M41.691 142.577C35.8873 142.579 30.1823 141.083 25.1273 138.232" stroke="#FDFDFF" stroke-width="14.73" stroke-linecap="round" stroke-linejoin="round"/>
<path d="M92.2135 92.0542H125.896" stroke="#FDFDFF" stroke-width="14.73" stroke-linecap="round" stroke-linejoin="round"/>
<path d="M92.2135 134.157H142.736C152.037 134.157 159.577 141.697 159.577 150.998V159.418" stroke="#FDFDFF" stroke-width="14.73" stroke-linecap="round" stroke-linejoin="round"/>
<path d="M92.2135 49.9517H159.577" stroke="#FDFDFF" stroke-width="14.73" stroke-linecap="round" stroke-linejoin="round"/>
<path d="M125.896 96.2642C128.221 96.2642 130.106 94.3794 130.106 92.0542C130.106 89.7291 128.221 87.8442 125.896 87.8442C123.571 87.8442 121.686 89.7291 121.686 92.0542C121.686 94.3794 123.571 96.2642 125.896 96.2642Z" stroke="#FDFDFF" stroke-width="14.73" stroke-linecap="round" stroke-linejoin="round"/>
<path d="M159.577 163.628C161.902 163.628 163.787 161.743 163.787 159.418C163.787 157.093 161.902 155.208 159.577 155.208C157.252 155.208 155.367 157.093 155.367 159.418C155.367 161.743 157.252 163.628 159.577 163.628Z" stroke="#FDFDFF" stroke-width="14.73" stroke-linecap="round" stroke-linejoin="round"/>
<path d="M159.577 54.1617C161.902 54.1617 163.787 52.2768 163.787 49.9517C163.787 47.6266 161.902 45.7417 159.577 45.7417C157.252 45.7417 155.367 47.6266 155.367 49.9517C155.367 52.2768 157.252 54.1617 159.577 54.1617Z" stroke="#FDFDFF" stroke-width="14.73" stroke-linecap="round" stroke-linejoin="round"/>
<path d="M164.411 49.8306C164.411 52.3904 162.336 54.4656 159.776 54.4656C157.216 54.4656 155.141 52.3904 155.141 49.8306C155.141 47.2707 157.216 45.1956 159.776 45.1956C162.336 45.1956 164.411 47.2707 164.411 49.8306Z" fill="#1E1E1E" stroke="#FDFDFF"/>
<path d="M131.126 92.1318C131.126 94.6917 129.051 96.7668 126.491 96.7668C123.931 96.7668 121.856 94.6917 121.856 92.1318C121.856 89.572 123.931 87.4968 126.491 87.4968C129.051 87.4968 131.126 89.572 131.126 92.1318Z" fill="#1E1E1E" stroke="#FDFDFF"/>
<path d="M164.212 159.496C164.212 162.055 162.137 164.131 159.577 164.131C157.017 164.131 154.942 162.055 154.942 159.496C154.942 156.936 157.017 154.861 159.577 154.861C162.137 154.861 164.212 156.936 164.212 159.496Z" fill="#1E1E1E" stroke="#FDFDFF"/>
<path d="M238.025 145.261C232.142 145.261 226.813 143.748 222.04 140.722C217.3 137.663 213.534 133.175 210.744 127.259C207.987 121.308 206.609 114.013 206.609 105.374C206.609 96.4986 208.038 89.1196 210.895 83.2365C213.753 77.3198 217.552 72.8991 222.292 69.9744C227.065 67.0161 232.293 65.5369 237.974 65.5369C242.311 65.5369 245.925 66.2765 248.816 67.7557C251.741 69.2012 254.094 71.0166 255.876 73.2017C257.691 75.3532 259.069 77.4711 260.01 79.5554H260.666V40.7273H282.097V144H260.918V131.595H260.01C259.002 133.747 257.573 135.881 255.724 137.999C253.909 140.084 251.539 141.815 248.614 143.193C245.723 144.571 242.193 145.261 238.025 145.261ZM244.832 128.166C248.295 128.166 251.219 127.225 253.606 125.342C256.027 123.426 257.876 120.754 259.153 117.325C260.464 113.896 261.12 109.878 261.12 105.273C261.12 100.667 260.481 96.6667 259.204 93.2713C257.926 89.8759 256.077 87.2538 253.657 85.4048C251.236 83.5559 248.295 82.6314 244.832 82.6314C241.302 82.6314 238.327 83.5895 235.907 85.5057C233.486 87.4219 231.654 90.0777 230.41 93.473C229.166 96.8684 228.545 100.802 228.545 105.273C228.545 109.777 229.166 113.761 230.41 117.224C231.688 120.653 233.52 123.342 235.907 125.292C238.327 127.208 241.302 128.166 244.832 128.166ZM334.755 145.513C326.922 145.513 320.148 143.849 314.433 140.521C308.752 137.159 304.364 132.486 301.272 126.502C298.179 120.485 296.632 113.509 296.632 105.575C296.632 97.5743 298.179 90.5819 301.272 84.598C304.364 78.5805 308.752 73.9077 314.433 70.5795C320.148 67.2178 326.922 65.5369 334.755 65.5369C342.587 65.5369 349.345 67.2178 355.026 70.5795C360.741 73.9077 365.145 78.5805 368.238 84.598C371.33 90.5819 372.877 97.5743 372.877 105.575C372.877 113.509 371.33 120.485 368.238 126.502C365.145 132.486 360.741 137.159 355.026 140.521C349.345 143.849 342.587 145.513 334.755 145.513ZM334.855 128.872C338.419 128.872 341.394 127.864 343.781 125.847C346.168 123.796 347.966 121.006 349.176 117.476C350.42 113.946 351.042 109.929 351.042 105.424C351.042 100.919 350.42 96.902 349.176 93.3722C347.966 89.8423 346.168 87.0521 343.781 85.0014C341.394 82.9508 338.419 81.9254 334.855 81.9254C331.258 81.9254 328.233 82.9508 325.779 85.0014C323.358 87.0521 321.526 89.8423 320.282 93.3722C319.072 96.902 318.467 100.919 318.467 105.424C318.467 109.929 319.072 113.946 320.282 117.476C321.526 121.006 323.358 123.796 325.779 125.847C328.233 127.864 331.258 128.872 334.855 128.872ZM421.841 145.513C413.907 145.513 407.082 143.832 401.368 140.47C395.686 137.075 391.316 132.368 388.257 126.351C385.231 120.333 383.718 113.408 383.718 105.575C383.718 97.6416 385.248 90.6828 388.307 84.6989C391.4 78.6813 395.787 73.9917 401.468 70.63C407.15 67.2346 413.907 65.5369 421.74 65.5369C428.497 65.5369 434.413 66.764 439.49 69.218C444.566 71.6721 448.583 75.1179 451.542 79.5554C454.5 83.9929 456.13 89.2036 456.433 95.1875H436.162C435.59 91.3215 434.077 88.2119 431.623 85.8587C429.203 83.4718 426.026 82.2784 422.093 82.2784C418.765 82.2784 415.857 83.1861 413.369 85.0014C410.915 86.7831 408.999 89.3885 407.62 92.8175C406.242 96.2464 405.553 100.398 405.553 105.273C405.553 110.214 406.225 114.417 407.57 117.879C408.948 121.342 410.881 123.981 413.369 125.796C415.857 127.612 418.765 128.519 422.093 128.519C424.547 128.519 426.749 128.015 428.698 127.006C430.682 125.998 432.312 124.536 433.59 122.619C434.901 120.67 435.758 118.333 436.162 115.61H456.433C456.097 121.527 454.483 126.737 451.592 131.242C448.734 135.713 444.784 139.21 439.742 141.731C434.699 144.252 428.732 145.513 421.841 145.513ZM480.524 93.7756V144H474.372V40.7273H480.524V78.799H481.129C482.944 74.7649 485.835 71.5545 489.802 69.1676C493.803 66.7472 498.593 65.5369 504.174 65.5369C509.384 65.5369 513.973 66.6463 517.94 68.8651C521.907 71.0502 525 74.1934 527.219 78.2947C529.471 82.3624 530.597 87.237 530.597 92.9183V144H524.496V93.1705C524.496 86.5478 522.529 81.2363 518.596 77.2358C514.662 73.2353 509.469 71.2351 503.014 71.2351C498.677 71.2351 494.811 72.1764 491.416 74.0589C488.021 75.9415 485.348 78.5805 483.398 81.9759C481.482 85.3376 480.524 89.2708 480.524 93.7756ZM586.255 145.614C579.263 145.614 573.178 143.882 568.001 140.42C562.824 136.957 558.823 132.217 555.999 126.2C553.175 120.182 551.763 113.324 551.763 105.626C551.763 97.8937 553.175 91.0021 555.999 84.951C558.857 78.8999 562.773 74.1262 567.749 70.63C572.724 67.1338 578.405 65.3856 584.793 65.3856C589.129 65.3856 593.231 66.2597 597.097 68.0078C600.996 69.7223 604.425 72.21 607.383 75.4709C610.375 78.7318 612.712 82.665 614.393 87.2706C616.107 91.8762 616.964 97.0533 616.964 102.802V106.634H555.646V101.037H610.812C610.812 95.4228 609.669 90.3634 607.383 85.8587C605.098 81.3539 601.988 77.7737 598.055 75.1179C594.121 72.4621 589.701 71.1342 584.793 71.1342C579.649 71.1342 575.06 72.5798 571.026 75.4709C567.026 78.3284 563.849 82.1944 561.496 87.0689C559.176 91.9434 557.966 97.3894 557.865 103.407V105.928C557.865 112.383 558.991 118.182 561.244 123.325C563.53 128.435 566.79 132.486 571.026 135.478C575.262 138.436 580.338 139.915 586.255 139.915C590.491 139.915 594.105 139.21 597.097 137.798C600.122 136.352 602.593 134.604 604.509 132.553C606.425 130.503 607.871 128.519 608.846 126.603L614.443 128.872C613.267 131.461 611.434 134.049 608.947 136.638C606.493 139.193 603.366 141.327 599.567 143.042C595.802 144.756 591.365 145.614 586.255 145.614ZM644.295 40.7273V144H638.143V40.7273H644.295ZM669.761 173.045V66.5455H675.761V83.8416H676.518C677.728 80.5135 679.426 77.4543 681.611 74.6641C683.83 71.8738 686.569 69.6383 689.83 67.9574C693.125 66.2429 696.991 65.3856 701.428 65.3856C707.681 65.3856 713.127 67.1001 717.766 70.5291C722.406 73.9581 726.003 78.6982 728.557 84.7493C731.112 90.7668 732.39 97.6752 732.39 105.474C732.39 113.274 731.096 120.199 728.507 126.25C725.952 132.268 722.355 137.008 717.716 140.47C713.11 143.899 707.715 145.614 701.529 145.614C697.125 145.614 693.259 144.773 689.931 143.092C686.637 141.411 683.863 139.176 681.611 136.386C679.392 133.562 677.694 130.469 676.518 127.107H675.913V173.045H669.761ZM675.812 105.424C675.812 112.013 676.82 117.913 678.837 123.124C680.854 128.301 683.745 132.402 687.511 135.428C691.276 138.42 695.764 139.915 700.974 139.915C706.252 139.915 710.774 138.403 714.539 135.377C718.338 132.318 721.229 128.183 723.212 122.972C725.229 117.762 726.238 111.912 726.238 105.424C726.238 98.9358 725.246 93.1032 723.263 87.9261C721.279 82.7491 718.405 78.6645 714.64 75.6726C710.875 72.647 706.32 71.1342 700.974 71.1342C695.696 71.1342 691.175 72.6302 687.41 75.6222C683.678 78.5805 680.804 82.6482 678.787 87.8253C676.803 92.9687 675.812 98.835 675.812 105.424ZM759.406 144.656C757.893 144.656 756.599 144.134 755.523 143.092C754.481 142.017 753.96 140.722 753.96 139.21C753.96 137.73 754.481 136.453 755.523 135.377C756.599 134.301 757.893 133.763 759.406 133.763C760.885 133.763 762.162 134.301 763.238 135.377C764.314 136.453 764.852 137.73 764.852 139.21C764.852 140.218 764.6 141.143 764.095 141.983C763.625 142.79 762.969 143.445 762.129 143.95C761.322 144.42 760.414 144.656 759.406 144.656ZM811.206 145.664C806.735 145.664 802.633 144.773 798.902 142.991C795.204 141.21 792.229 138.604 789.977 135.175C787.758 131.746 786.648 127.578 786.648 122.67C786.648 119.442 787.22 116.602 788.363 114.148C789.506 111.694 791.271 109.576 793.658 107.794C796.044 106.012 799.104 104.55 802.835 103.407C806.567 102.23 811.021 101.323 816.198 100.684C820.131 100.213 823.644 99.7595 826.737 99.3224C829.83 98.8518 832.25 98.129 833.999 97.1541C835.78 96.1792 836.671 94.7 836.671 92.7166V89.4893C836.671 83.8416 834.889 79.3537 831.326 76.0256C827.763 72.6974 822.854 71.0334 816.602 71.0334C811.055 71.0334 806.382 72.2604 802.583 74.7145C798.818 77.1349 796.179 80.2614 794.666 84.0938L788.867 81.9254C790.346 78.2275 792.481 75.1515 795.271 72.6974C798.095 70.2434 801.322 68.4112 804.953 67.201C808.617 65.9908 812.45 65.3856 816.45 65.3856C819.913 65.3856 823.207 65.8731 826.334 66.848C829.494 67.8229 832.301 69.3021 834.755 71.2855C837.243 73.2689 839.209 75.8071 840.655 78.8999C842.1 81.959 842.823 85.6233 842.823 89.8928V144H836.671V130.032H836.217C834.873 132.923 833.024 135.562 830.67 137.949C828.351 140.302 825.544 142.185 822.249 143.597C818.988 144.975 815.307 145.664 811.206 145.664ZM811.811 139.966C816.652 139.966 820.938 138.789 824.67 136.436C828.435 134.049 831.376 130.788 833.494 126.653C835.612 122.518 836.671 117.829 836.671 112.585V101.188C835.898 101.861 834.772 102.466 833.293 103.004C831.847 103.508 830.2 103.962 828.351 104.365C826.535 104.735 824.619 105.071 822.602 105.374C820.619 105.643 818.686 105.895 816.803 106.13C811.156 106.802 806.55 107.844 802.986 109.256C799.457 110.635 796.868 112.45 795.221 114.702C793.607 116.955 792.8 119.678 792.8 122.871C792.8 128.149 794.616 132.318 798.246 135.377C801.877 138.436 806.399 139.966 811.811 139.966ZM868.919 144V66.5455H875.02V144H868.919ZM871.995 52.8295C870.65 52.8295 869.473 52.3589 868.465 51.4176C867.49 50.4763 867.002 49.3333 867.002 47.9886C867.002 46.6439 867.49 45.5009 868.465 44.5597C869.44 43.6184 870.616 43.1477 871.995 43.1477C873.339 43.1477 874.499 43.6184 875.474 44.5597C876.483 45.5009 876.987 46.6439 876.987 47.9886C876.987 49.3333 876.499 50.4763 875.524 51.4176C874.55 52.3589 873.373 52.8295 871.995 52.8295Z" fill="#FDFDFF"/>
</svg>
